<?xml version="1.0" encoding="UTF-8" standalone="no"?>
<!DOCTYPE svg PUBLIC "-//W3C//DTD SVG 1.1//EN" "http://www.w3.org/Graphics/SVG/1.1/DTD/svg11.dtd">
<!-- Generated by Microsoft Visio, SVG Export conveyorCollect.svg Page-1 -->
<svg xmlns="http://www.w3.org/2000/svg" xmlns:xlink="http://www.w3.org/1999/xlink" xmlns:ev="http://www.w3.org/2001/xml-events"
		width="11.6929in" height="8.26772in" viewBox="0 0 841.89 595.276" xml:space="preserve" color-interpolation-filters="sRGB"
		class="st8">
	<title>conveyorCollect</title>

	<style type="text/css">
	<![CDATA[
		.st1 {fill:#ffffff;stroke:#06306f;stroke-linecap:round;stroke-linejoin:round;stroke-width:1}
		.st2 {fill:#06306f;font-family:Calibri;font-size:0.666664em}
		.st3 {font-size:1em}
		.st4 {marker-end:url(#mrkr4-16);stroke:#06306f;stroke-linecap:round;stroke-linejoin:round;stroke-width:1}
		.st5 {fill:#06306f;fill-opacity:1;stroke:#06306f;stroke-opacity:1;stroke-width:0.28409090909091}
		.st6 {fill:#ffffff;stroke:none;stroke-linecap:butt;stroke-width:7.2}
		.st7 {fill:#062f6e;font-family:Calibri;font-size:0.666664em}
		.st8 {fill:none;fill-rule:evenodd;font-size:12px;overflow:visible;stroke-linecap:square;stroke-miterlimit:3}
	]]>
	</style>

	<defs id="Markers">
		<g id="lend4">
			<path d="M 2 1 L 0 0 L 2 -1 L 2 1 " style="stroke:none"/>
		</g>
		<marker id="mrkr4-16" class="st5" refX="-7.04" orient="auto" markerUnits="strokeWidth" overflow="visible">
			<use xlink:href="#lend4" transform="scale(-3.52,-3.52) "/>
		</marker>
	</defs>
	<g>
		<title>Page-1</title>
		<g id="shape1040-1" transform="translate(28.3465,-497.48)">
			<title>Start/End.1000</title>
			<desc>Start</desc>
			<path d="M8.5 595.28 L34.02 595.28 A8.50394 8.50394 -180 0 0 34.02 578.27 L8.5 578.27 A8.50394 8.50394 -180 1 0 8.5 595.28
						 Z" class="st1"/>
			<text x="13.43" y="589.17" class="st2">Start</text>		</g>
		<g id="shape1041-4" transform="translate(688.819,-497.48)">
			<title>Start/End.1014</title>
			<desc>End</desc>
			<path d="M8.5 595.28 L34.02 595.28 A8.50394 8.50394 -180 0 0 34.02 578.27 L8.5 578.27 A8.50394 8.50394 -180 1 0 8.5 595.28
						 Z" class="st1"/>
			<text x="15.1" y="589.17" class="st2">End</text>		</g>
		<g id="shape1042-7" transform="translate(110.551,-484.724)">
			<title>Process.1022</title>
			<desc>Straight along conveyor</desc>
			<rect x="0" y="552.756" width="70.8661" height="42.5197" class="st1"/>
			<text x="12.87" y="571.62" class="st2">Straight along <tspan x="20.42" dy="1.2em" class="st3">conveyor</tspan></text>		</g>
		<g id="shape1043-11" transform="translate(70.8661,-498.898)">
			<title>Dynamic connector</title>
			<path d="M0 588.19 L32.65 588.19" class="st4"/>
		</g>
		<g id="shape1044-17" transform="translate(221.102,-484.724)">
			<title>Process.1024</title>
			<desc>Check Egg Type</desc>
			<rect x="0" y="552.756" width="70.8661" height="42.5197" class="st1"/>
			<text x="10.32" y="576.42" class="st2">Check Egg Type</text>		</g>
		<g id="shape1045-20" transform="translate(181.417,-498.898)">
			<title>Dynamic connector.1025</title>
			<desc>LSL</desc>
			<path d="M0 588.19 L32.65 588.19" class="st4"/>
			<rect x="14.6414" y="583.389" width="10.4021" height="9.59985" class="st6"/>
			<text x="14.64" y="590.59" class="st7">LSL</text>		</g>
		<g id="shape1046-27" transform="translate(221.102,-399.685)">
			<title>Process.1026</title>
			<desc>Drive Straight</desc>
			<rect x="0" y="552.756" width="70.8661" height="42.5197" class="st1"/>
			<text x="13.23" y="576.42" class="st2">Drive Straight</text>		</g>
		<g id="shape1047-30" transform="translate(334.488,-399.685)">
			<title>Process.1028</title>
			<desc>Arm Down</desc>
			<rect x="0" y="552.756" width="70.8661" height="42.5197" class="st1"/>
			<text x="18.09" y="576.42" class="st2">Arm Down</text>		</g>
		<g id="shape1048-33" transform="translate(447.874,-399.685)">
			<title>Process.1029</title>
			<desc>Arm Close</desc>
			<rect x="0" y="552.756" width="70.8661" height="42.5197" class="st1"/>
			<text x="18.91" y="576.42" class="st2">Arm Close</text>		</g>
		<g id="shape1049-36" transform="translate(561.26,-399.685)">
			<title>Process.1030</title>
			<desc>Arm Up</desc>
			<rect x="0" y="552.756" width="70.8661" height="42.5197" class="st1"/>
			<text x="22.96" y="576.42" class="st2">Arm Up</text>		</g>
		<g id="shape1050-39" transform="translate(674.646,-399.685)">
			<title>Process.1031</title>
			<desc>Arm Open</desc>
			<rect x="0" y="552.756" width="70.8661" height="42.5197" class="st1"/>
			<text x="18.78" y="576.42" class="st2">Arm Open</text>		</g>
		<g id="shape1051-42" transform="translate(249.449,-484.724)">
			<title>Dynamic connector.1032</title>
			<desc>shouldCollect</desc>
			<path d="M7.09 595.28 L7.09 630.76" class="st4"/>
			<rect x="-14.909" y="611.736" width="43.9915" height="9.59985" class="st6"/>
			<text x="-14.91" y="618.94" class="st7">shouldCollect</text>		</g>
		<g id="shape1052-49" transform="translate(291.969,-413.858)">
			<title>Dynamic connector.1033</title>
			<desc>10cm</desc>
			<path d="M0 588.19 L35.48 588.19" class="st4"/>
			<rect x="12.3184" y="583.389" width="17.8827" height="9.59985" class="st6"/>
			<text x="12.32" y="590.59" class="st7">10cm</text>		</g>
		<g id="shape1053-56" transform="translate(405.354,-428.031)">
			<title>Dynamic connector.1034</title>
			<path d="M0 602.36 L35.48 602.36" class="st4"/>
		</g>
		<g id="shape1054-61" transform="translate(518.74,-413.858)">
			<title>Dynamic connector.1035</title>
			<path d="M0 588.19 L35.48 588.19" class="st4"/>
		</g>
		<g id="shape1055-66" transform="translate(632.126,-413.858)">
			<title>Dynamic connector.1036</title>
			<path d="M0 588.19 L35.48 588.19" class="st4"/>
		</g>
		<g id="shape1056-71" transform="translate(710.079,-399.685)">
			<title>Dynamic connector.1037</title>
			<desc>Else</desc>
			<path d="M0 595.28 L0 616.54 L-564.09 616.54 L-564.09 517.28" class="st4"/>
			<rect x="-330.992" y="611.736" width="12.8513" height="9.59985" class="st6"/>
			<text x="-330.99" y="618.94" class="st7">Else</text>		</g>
		<g id="shape1057-78" transform="translate(702.992,-442.205)">
			<title>Dynamic connector.1038</title>
			<desc>At position 5</desc>
			<path d="M7.09 595.28 L7.09 547.04" class="st4"/>
			<rect x="-13.5654" y="562.838" width="41.3042" height="9.59985" class="st6"/>
			<text x="-13.57" y="570.04" class="st7">At position 5</text>		</g>
		<g id="shape1058-85" transform="translate(291.969,-513.071)">
			<title>Dynamic connector.1039</title>
			<desc>Not shouldCollect And at position 5</desc>
			<path d="M0 602.36 L389.81 602.36" class="st4"/>
			<rect x="169.494" y="592.762" width="57.8625" height="19.1997" class="st6"/>
			<text x="169.49" y="599.96" class="st7">Not shouldCollect <tspan x="170.75" dy="1.2em" class="st3">And at position </tspan>5</text>		</g>
	</g>
</svg>
