<?xml version="1.0" encoding="UTF-8" standalone="no"?>
<!DOCTYPE svg PUBLIC "-//W3C//DTD SVG 1.1//EN" "http://www.w3.org/Graphics/SVG/1.1/DTD/svg11.dtd">
<!-- Generated by Microsoft Visio, SVG Export goToConveyor.svg Page-1 -->
<svg xmlns="http://www.w3.org/2000/svg" xmlns:xlink="http://www.w3.org/1999/xlink" xmlns:ev="http://www.w3.org/2001/xml-events"
		width="11.6929in" height="8.26772in" viewBox="0 0 841.89 595.276" xml:space="preserve" color-interpolation-filters="sRGB"
		class="st8">
	<title>Q2 Collect D2 and D3 Eggs</title>

	<style type="text/css">
	<![CDATA[
		.st1 {fill:#ffffff;stroke:#06306f;stroke-linecap:round;stroke-linejoin:round;stroke-width:1}
		.st2 {fill:#06306f;font-family:Calibri;font-size:0.666664em}
		.st3 {font-size:1em}
		.st4 {marker-end:url(#mrkr4-16);stroke:#06306f;stroke-linecap:round;stroke-linejoin:round;stroke-width:1}
		.st5 {fill:#06306f;fill-opacity:1;stroke:#06306f;stroke-opacity:1;stroke-width:0.28409090909091}
		.st6 {fill:#ffffff;stroke:none;stroke-linecap:butt;stroke-width:7.2}
		.st7 {fill:#062f6e;font-family:Calibri;font-size:0.666664em}
		.st8 {fill:none;fill-rule:evenodd;font-size:12px;overflow:visible;stroke-linecap:square;stroke-miterlimit:3}
	]]>
	</style>

	<defs id="Markers">
		<g id="lend4">
			<path d="M 2 1 L 0 0 L 2 -1 L 2 1 " style="stroke:none"/>
		</g>
		<marker id="mrkr4-16" class="st5" refX="-7.04" orient="auto" markerUnits="strokeWidth" overflow="visible">
			<use xlink:href="#lend4" transform="scale(-3.52,-3.52) "/>
		</marker>
	</defs>
	<g>
		<title>Page-1</title>
		<g id="shape1-1" transform="translate(123.307,-371.339)">
			<title>Start/End.1000</title>
			<desc>Start</desc>
			<path d="M8.5 595.28 L34.02 595.28 A8.50394 8.50394 -180 0 0 34.02 578.27 L8.5 578.27 A8.50394 8.50394 -180 1 0 8.5 595.28
						 Z" class="st1"/>
			<text x="13.43" y="589.17" class="st2">Start</text>		</g>
		<g id="shape2-4" transform="translate(671.811,-371.339)">
			<title>Start/End.1014</title>
			<desc>End</desc>
			<path d="M8.5 595.28 L34.02 595.28 A8.50394 8.50394 -180 0 0 34.02 578.27 L8.5 578.27 A8.50394 8.50394 -180 1 0 8.5 595.28
						 Z" class="st1"/>
			<text x="15.1" y="589.17" class="st2">End</text>		</g>
		<g id="shape3-7" transform="translate(205.512,-358.583)">
			<title>Process.1022</title>
			<desc>Rotate CCW to N line</desc>
			<rect x="0" y="552.756" width="70.8661" height="42.5197" class="st1"/>
			<text x="8" y="571.62" class="st2">Rotate CCW to N <tspan x="29.51" dy="1.2em" class="st3">line</tspan></text>		</g>
		<g id="shape4-11" transform="translate(165.827,-372.756)">
			<title>Dynamic connector</title>
			<desc>east</desc>
			<path d="M0 588.19 L32.65 588.19" class="st4"/>
			<rect x="13.0322" y="583.389" width="13.6208" height="9.59985" class="st6"/>
			<text x="13.03" y="590.59" class="st7">east</text>		</g>
		<g id="shape5-19" transform="translate(520.157,-358.583)">
			<title>Process.1024</title>
			<desc>Rotate to conveyor</desc>
			<rect x="0" y="552.756" width="70.8661" height="42.5197" class="st1"/>
			<text x="4.29" y="576.42" class="st2">Rotate to conveyor</text>		</g>
		<g id="shape6-22" transform="translate(276.378,-372.756)">
			<title>Dynamic connector.1026</title>
			<desc>Past 2 Lines</desc>
			<path d="M0 588.19 L85.09 588.19" class="st4"/>
			<rect x="27.0848" y="583.389" width="37.9567" height="9.59985" class="st6"/>
			<text x="27.08" y="590.59" class="st7">Past 2 Lines</text>		</g>
		<g id="shape7-29" transform="translate(368.504,-358.583)">
			<title>Process.1037</title>
			<desc>Reverse to the conveyor</desc>
			<rect x="0" y="552.756" width="70.8661" height="42.5197" class="st1"/>
			<text x="11.84" y="571.62" class="st2">Reverse to the <tspan x="20.42" dy="1.2em" class="st3">conveyor</tspan></text>		</g>
		<g id="shape8-33" transform="translate(205.512,-273.543)">
			<title>Process.1053</title>
			<desc>Rotate CW to N line</desc>
			<rect x="0" y="552.756" width="70.8661" height="42.5197" class="st1"/>
			<text x="3.3" y="576.42" class="st2">Rotate CW to N line</text>		</g>
		<g id="shape9-36" transform="translate(144.567,-371.339)">
			<title>Dynamic connector.1054</title>
			<desc>!east</desc>
			<path d="M0 595.28 L0 671.81 L53.9 671.81" class="st4"/>
			<rect x="-8.11307" y="659.216" width="16.2263" height="9.59985" class="st6"/>
			<text x="-8.11" y="666.42" class="st7">!east</text>		</g>
		<g id="shape10-43" transform="translate(276.378,-294.803)">
			<title>Dynamic connector.1055</title>
			<desc>Past 2 Lines</desc>
			<path d="M0 595.28 L127.56 595.28 L127.56 538.54" class="st4"/>
			<rect x="76.6911" y="590.476" width="37.9567" height="9.59985" class="st6"/>
			<text x="76.69" y="597.68" class="st7">Past 2 Lines</text>		</g>
		<g id="shape11-50" transform="translate(439.37,-372.756)">
			<title>Dynamic connector.1056</title>
			<desc>Past 3 junctions</desc>
			<path d="M0 588.19 L73.75 588.19" class="st4"/>
			<rect x="14.7866" y="583.389" width="51.2144" height="9.59985" class="st6"/>
			<text x="14.79" y="590.59" class="st7">Past 3 junctions</text>		</g>
		<g id="shape12-57" transform="translate(591.024,-386.929)">
			<title>Dynamic connector.1057</title>
			<path d="M0 602.36 L73.75 602.36" class="st4"/>
		</g>
	</g>
</svg>
