<?xml version="1.0" encoding="UTF-8" standalone="no"?>
<!DOCTYPE svg PUBLIC "-//W3C//DTD SVG 1.1//EN" "http://www.w3.org/Graphics/SVG/1.1/DTD/svg11.dtd">
<!-- Generated by Microsoft Visio, SVG Export q1_collect_d2d3.svg Page-1 -->
<svg xmlns="http://www.w3.org/2000/svg" xmlns:xlink="http://www.w3.org/1999/xlink" xmlns:ev="http://www.w3.org/2001/xml-events"
		width="11.6929in" height="8.26772in" viewBox="0 0 841.89 595.276" xml:space="preserve" color-interpolation-filters="sRGB"
		class="st8">
	<title>Q2 Collect D2 and D3 Eggs</title>

	<style type="text/css">
	<![CDATA[
		.st1 {fill:#ffffff;stroke:#06306f;stroke-linecap:round;stroke-linejoin:round;stroke-width:1}
		.st2 {fill:#06306f;font-family:Calibri;font-size:0.666664em}
		.st3 {fill:#ffffff}
		.st4 {stroke:#06306f;stroke-linecap:round;stroke-linejoin:round;stroke-width:1}
		.st5 {font-size:1em}
		.st6 {marker-end:url(#mrkr4-26);stroke:#06306f;stroke-linecap:round;stroke-linejoin:round;stroke-width:1}
		.st7 {fill:#06306f;fill-opacity:1;stroke:#06306f;stroke-opacity:1;stroke-width:0.28409090909091}
		.st8 {fill:none;fill-rule:evenodd;font-size:12px;overflow:visible;stroke-linecap:square;stroke-miterlimit:3}
	]]>
	</style>

	<defs id="Markers">
		<g id="lend4">
			<path d="M 2 1 L 0 0 L 2 -1 L 2 1 " style="stroke:none"/>
		</g>
		<marker id="mrkr4-26" class="st7" refX="-7.04" orient="auto" markerUnits="strokeWidth" overflow="visible">
			<use xlink:href="#lend4" transform="scale(-3.52,-3.52) "/>
		</marker>
	</defs>
	<g>
		<title>Page-1</title>
		<g id="shape1-1" transform="translate(130.394,-471.969)">
			<title>Start/End.1000</title>
			<desc>Start</desc>
			<path d="M8.5 595.28 L34.02 595.28 A8.50394 8.50394 -180 0 0 34.02 578.27 L8.5 578.27 A8.50394 8.50394 -180 1 0 8.5 595.28
						 Z" class="st1"/>
			<text x="13.43" y="589.17" class="st2">Start</text>		</g>
		<g id="shape2-4" transform="translate(484.724,-471.969)">
			<title>Start/End.1014</title>
			<desc>End</desc>
			<path d="M8.5 595.28 L34.02 595.28 A8.50394 8.50394 -180 0 0 34.02 578.27 L8.5 578.27 A8.50394 8.50394 -180 1 0 8.5 595.28
						 Z" class="st1"/>
			<text x="15.1" y="589.17" class="st2">End</text>		</g>
		<g id="shape3-7" transform="translate(215.433,-459.213)">
			<title>Subprocess</title>
			<desc>goToConveyor (east)</desc>
			<path d="M0 595.28 L87.87 595.28 L87.87 552.76 L0 552.76 L0 595.28 Z" class="st3"/>
			<path d="M0 595.28 L87.87 595.28 L87.87 552.76 L0 552.76 L0 595.28" class="st4"/>
			<path d="M8.5 595.28 L8.5 552.76" class="st4"/>
			<path d="M79.37 595.28 L79.37 552.76" class="st4"/>
			<text x="20.43" y="571.62" class="st2">goToConveyor <tspan x="34.7" dy="1.2em" class="st5">(</tspan>east)</text>		</g>
		<g id="shape4-14" transform="translate(345.827,-459.213)">
			<title>Subprocess.1016</title>
			<desc>conveyorCollect (shouldCollectD2D3)</desc>
			<path d="M0 595.28 L96.38 595.28 L96.38 552.76 L0 552.76 L0 595.28 Z" class="st3"/>
			<path d="M0 595.28 L96.38 595.28 L96.38 552.76 L0 552.76 L0 595.28" class="st4"/>
			<path d="M8.5 595.28 L8.5 552.76" class="st4"/>
			<path d="M87.87 595.28 L87.87 552.76" class="st4"/>
			<text x="22.08" y="571.62" class="st2">conveyorCollect <tspan x="14.79" dy="1.2em" class="st5">(</tspan>shouldCollectD2D3)</text>		</g>
		<g id="shape5-21" transform="translate(172.913,-473.386)">
			<title>Dynamic connector</title>
			<path d="M0 588.19 L35.48 588.19" class="st6"/>
		</g>
		<g id="shape6-27" transform="translate(303.307,-473.386)">
			<title>Dynamic connector.1018</title>
			<path d="M0 588.19 L35.48 588.19" class="st6"/>
		</g>
		<g id="shape7-32" transform="translate(442.205,-487.559)">
			<title>Dynamic connector.1019</title>
			<path d="M0 602.36 L35.48 602.36" class="st6"/>
		</g>
	</g>
</svg>
