<?xml version="1.0" encoding="UTF-8" standalone="no"?>
<!DOCTYPE svg PUBLIC "-//W3C//DTD SVG 1.1//EN" "http://www.w3.org/Graphics/SVG/1.1/DTD/svg11.dtd">
<!-- Generated by Microsoft Visio, SVG Export q2_deliver_d2d3.svg Page-1 -->
<svg xmlns="http://www.w3.org/2000/svg" xmlns:xlink="http://www.w3.org/1999/xlink" xmlns:ev="http://www.w3.org/2001/xml-events"
		width="11.6929in" height="8.26772in" viewBox="0 0 841.89 595.276" xml:space="preserve" color-interpolation-filters="sRGB"
		class="st10">
	<title>Q2 Collect D2 and D3 Eggs</title>

	<style type="text/css">
	<![CDATA[
		.st1 {fill:#ffffff;stroke:#06306f;stroke-linecap:round;stroke-linejoin:round;stroke-width:1}
		.st2 {fill:#06306f;font-family:Calibri;font-size:0.666664em}
		.st3 {font-size:1em}
		.st4 {marker-end:url(#mrkr4-21);stroke:#06306f;stroke-linecap:round;stroke-linejoin:round;stroke-width:1}
		.st5 {fill:#06306f;fill-opacity:1;stroke:#06306f;stroke-opacity:1;stroke-width:0.28409090909091}
		.st6 {fill:#ffffff;stroke:none;stroke-linecap:butt;stroke-width:7.2}
		.st7 {fill:#062f6e;font-family:Calibri;font-size:0.666664em}
		.st8 {fill:#ffffff}
		.st9 {stroke:#06306f;stroke-linecap:round;stroke-linejoin:round;stroke-width:1}
		.st10 {fill:none;fill-rule:evenodd;font-size:12px;overflow:visible;stroke-linecap:square;stroke-miterlimit:3}
	]]>
	</style>

	<defs id="Markers">
		<g id="lend4">
			<path d="M 2 1 L 0 0 L 2 -1 L 2 1 " style="stroke:none"/>
		</g>
		<marker id="mrkr4-21" class="st5" refX="-7.04" orient="auto" markerUnits="strokeWidth" overflow="visible">
			<use xlink:href="#lend4" transform="scale(-3.52,-3.52) "/>
		</marker>
	</defs>
	<g>
		<title>Page-1</title>
		<g id="shape1-1" transform="translate(45.3543,-479.055)">
			<title>Start/End.1000</title>
			<desc>Start</desc>
			<path d="M8.5 595.28 L34.02 595.28 A8.50394 8.50394 -180 0 0 34.02 578.27 L8.5 578.27 A8.50394 8.50394 -180 1 0 8.5 595.28
						 Z" class="st1"/>
			<text x="13.43" y="589.17" class="st2">Start</text>		</g>
		<g id="shape2-4" transform="translate(248.031,-75.1181)">
			<title>Start/End.1014</title>
			<desc>End</desc>
			<path d="M8.5 595.28 L34.02 595.28 A8.50394 8.50394 -180 0 0 34.02 578.27 L8.5 578.27 A8.50394 8.50394 -180 1 0 8.5 595.28
						 Z" class="st1"/>
			<text x="15.1" y="589.17" class="st2">End</text>		</g>
		<g id="shape3-7" transform="translate(144.567,-466.299)">
			<title>Process</title>
			<desc>Depart Conveyor Move Forward: 1 Steer: 0.5</desc>
			<rect x="0" y="552.756" width="70.8661" height="42.5197" class="st1"/>
			<text x="7.87" y="562.02" class="st2">Depart Conveyor <tspan x="26.11" dy="1.2em" class="st3">Move </tspan><tspan
						x="17.82" dy="1.2em" class="st3">Forward</tspan>: 1 <tspan x="19.84" dy="1.2em" class="st3">Steer</tspan>: 0.5</text>		</g>
		<g id="shape4-13" transform="translate(303.307,-466.299)">
			<title>Process.1016</title>
			<desc>Line Follow</desc>
			<rect x="0" y="552.756" width="70.8661" height="42.5197" class="st1"/>
			<text x="17.09" y="576.42" class="st2">Line Follow</text>		</g>
		<g id="shape5-16" transform="translate(87.874,-480.472)">
			<title>Dynamic connector</title>
			<path d="M0 588.19 L49.65 588.19" class="st4"/>
		</g>
		<g id="shape6-22" transform="translate(215.433,-480.472)">
			<title>Dynamic connector.1018</title>
			<desc>Found Line After at least 1s</desc>
			<path d="M0 588.19 L80.83 588.19" class="st4"/>
			<rect x="18.3885" y="578.589" width="51.0971" height="19.1997" class="st6"/>
			<text x="26.09" y="585.79" class="st7">Found Line <tspan x="18.39" dy="1.2em" class="st3">After at least </tspan>1s</text>		</g>
		<g id="shape7-30" transform="translate(436.535,-466.299)">
			<title>Process.1019</title>
			<desc>Turn CCW</desc>
			<rect x="0" y="552.756" width="70.8661" height="42.5197" class="st1"/>
			<text x="19.16" y="576.42" class="st2">Turn CCW</text>		</g>
		<g id="shape8-33" transform="translate(374.173,-480.472)">
			<title>Dynamic connector.1020</title>
			<desc>Junction`</desc>
			<path d="M0 588.19 L55.32 588.19" class="st4"/>
			<rect x="16.3787" y="583.389" width="29.6049" height="9.59985" class="st6"/>
			<text x="16.38" y="590.59" class="st7">Junction`</text>		</g>
		<g id="shape9-40" transform="translate(569.764,-466.299)">
			<title>Process.1021</title>
			<desc>Go up ramp Line Follow</desc>
			<rect x="0" y="552.756" width="70.8661" height="42.5197" class="st1"/>
			<text x="16.18" y="571.62" class="st2">Go up ramp <tspan x="17.09" dy="1.2em" class="st3">Line Follow</tspan></text>		</g>
		<g id="shape10-44" transform="translate(507.402,-480.472)">
			<title>Dynamic connector.1022</title>
			<desc>90 deg</desc>
			<path d="M0 588.19 L55.32 588.19" class="st4"/>
			<rect x="20.2476" y="583.389" width="21.8672" height="9.59985" class="st6"/>
			<text x="20.25" y="590.59" class="st7">90 deg</text>		</g>
		<g id="shape11-51" transform="translate(702.992,-466.299)">
			<title>Process.1023</title>
			<desc>Turn CCW</desc>
			<rect x="0" y="552.756" width="70.8661" height="42.5197" class="st1"/>
			<text x="19.16" y="576.42" class="st2">Turn CCW</text>		</g>
		<g id="shape12-54" transform="translate(640.63,-480.472)">
			<title>Dynamic connector.1024</title>
			<desc>Junction</desc>
			<path d="M0 588.19 L55.32 588.19" class="st4"/>
			<rect x="17.5427" y="583.389" width="27.2769" height="9.59985" class="st6"/>
			<text x="17.54" y="590.59" class="st7">Junction</text>		</g>
		<g id="shape13-61" transform="translate(144.567,-374.173)">
			<title>Process.1025</title>
			<desc>Line Follow</desc>
			<rect x="0" y="552.756" width="70.8661" height="42.5197" class="st1"/>
			<text x="17.09" y="576.42" class="st2">Line Follow</text>		</g>
		<g id="shape14-64" transform="translate(738.425,-466.299)">
			<title>Dynamic connector.1026</title>
			<desc>90 deg</desc>
			<path d="M0 595.28 L0 623.62 L-558.43 623.62 L-558.43 637.84" class="st4"/>
			<rect x="-286.603" y="618.822" width="21.8672" height="9.59985" class="st6"/>
			<text x="-286.6" y="626.02" class="st7">90 deg</text>		</g>
		<g id="shape15-71" transform="translate(303.307,-374.173)">
			<title>Process.1027</title>
			<desc>Move Forward</desc>
			<rect x="0" y="552.756" width="70.8661" height="42.5197" class="st1"/>
			<text x="11.59" y="576.42" class="st2">Move Forward</text>		</g>
		<g id="shape16-74" transform="translate(215.433,-388.346)">
			<title>Dynamic connector.1028</title>
			<desc>2 Junctions</desc>
			<path d="M0 588.19 L80.83 588.19" class="st4"/>
			<rect x="25.8025" y="583.389" width="36.2692" height="9.59985" class="st6"/>
			<text x="25.8" y="590.59" class="st7">2 Junctions</text>		</g>
		<g id="shape17-81" transform="translate(303.307,-282.047)">
			<title>Process.1029</title>
			<desc>At Delivery Nexus</desc>
			<rect x="0" y="552.756" width="70.8661" height="42.5197" class="st1"/>
			<text x="6.71" y="576.42" class="st2">At Delivery Nexus</text>		</g>
		<g id="shape18-84" transform="translate(331.654,-374.173)">
			<title>Dynamic connector.1030</title>
			<desc>10cm</desc>
			<path d="M7.09 595.28 L7.09 637.84" class="st4"/>
			<rect x="-1.85482" y="615.279" width="17.8827" height="9.59985" class="st6"/>
			<text x="-1.85" y="622.48" class="st7">10cm</text>		</g>
		<g id="shape19-91" transform="translate(144.567,-282.047)">
			<title>Subprocess</title>
			<desc>dropEggs</desc>
			<path d="M0 595.28 L70.87 595.28 L70.87 552.76 L0 552.76 L0 595.28 Z" class="st8"/>
			<path d="M0 595.28 L70.87 595.28 L70.87 552.76 L0 552.76 L0 595.28" class="st9"/>
			<path d="M8.5 595.28 L8.5 552.76" class="st9"/>
			<path d="M62.36 595.28 L62.36 552.76" class="st9"/>
			<text x="20.44" y="576.42" class="st2">dropEggs</text>		</g>
		<g id="shape20-97" transform="translate(303.307,-296.22)">
			<title>Dynamic connector.1032</title>
			<desc>Else</desc>
			<path d="M0 588.19 L-80.83 588.19" class="st4"/>
			<rect x="-50.3626" y="583.389" width="12.8513" height="9.59985" class="st6"/>
			<text x="-50.36" y="590.59" class="st7">Else</text>		</g>
		<g id="shape21-104" transform="translate(180,-289.134)">
			<title>Dynamic connector.1033</title>
			<path d="M0 602.36 L0 623.62 L86.29 623.62 A3 3 0 1 1 92.29 623.62 L158.74 623.62 L158.74 609.4" class="st4"/>
		</g>
		<g id="shape22-109" transform="translate(445.039,-282.047)">
			<title>Process.1034</title>
			<desc>Move Forward: 0.35 Steer: 0.65</desc>
			<rect x="0" y="552.756" width="70.8661" height="42.5197" class="st1"/>
			<text x="26.11" y="566.82" class="st2">Move <tspan x="12.75" dy="1.2em" class="st3">Forward</tspan>: 0.35 <tspan
						x="17.81" dy="1.2em" class="st3">Steer</tspan>: 0.65</text>		</g>
		<g id="shape23-114" transform="translate(374.173,-296.22)">
			<title>Dynamic connector.1035</title>
			<desc>Next Egg Brown</desc>
			<path d="M0 588.19 L63.83 588.19" class="st4"/>
			<rect x="21.1657" y="578.589" width="28.5348" height="19.1997" class="st6"/>
			<text x="21.17" y="585.79" class="st7">Next Egg <tspan x="24.79" dy="1.2em" class="st3">Brown</tspan></text>		</g>
		<g id="shape24-122" transform="translate(586.772,-282.047)">
			<title>Subprocess.1039</title>
			<desc>dropEggs</desc>
			<path d="M0 595.28 L70.87 595.28 L70.87 552.76 L0 552.76 L0 595.28 Z" class="st8"/>
			<path d="M0 595.28 L70.87 595.28 L70.87 552.76 L0 552.76 L0 595.28" class="st9"/>
			<path d="M8.5 595.28 L8.5 552.76" class="st9"/>
			<path d="M62.36 595.28 L62.36 552.76" class="st9"/>
			<text x="20.44" y="576.42" class="st2">dropEggs</text>		</g>
		<g id="shape25-128" transform="translate(515.906,-296.22)">
			<title>Dynamic connector.1040</title>
			<desc>Line At least 45deg</desc>
			<path d="M0 588.19 L63.83 588.19" class="st4"/>
			<rect x="12.2127" y="578.589" width="46.4409" height="19.1997" class="st6"/>
			<text x="28.74" y="585.79" class="st7">Line <tspan x="12.21" dy="1.2em" class="st3">At least </tspan>45deg</text>		</g>
		<g id="shape26-136" transform="translate(586.772,-191.339)">
			<title>Process.1041</title>
			<desc>Move Forward: -0.35 Steer: -0.65</desc>
			<rect x="0" y="552.756" width="70.8661" height="42.5197" class="st1"/>
			<text x="26.11" y="566.82" class="st2">Move <tspan x="11.53" dy="1.2em" class="st3">Forward</tspan>: -0.35 <tspan
						x="16.59" dy="1.2em" class="st3">Steer</tspan>: -0.65</text>		</g>
		<g id="shape27-141" transform="translate(615.118,-282.047)">
			<title>Dynamic connector.1042</title>
			<path d="M7.09 595.28 L7.09 636.42" class="st4"/>
		</g>
		<g id="shape28-146" transform="translate(445.039,-100.63)">
			<title>Process.1043</title>
			<desc>Reverse</desc>
			<rect x="0" y="552.756" width="70.8661" height="42.5197" class="st1"/>
			<text x="22.52" y="576.42" class="st2">Reverse</text>		</g>
		<g id="shape29-149" transform="translate(480.472,-233.858)">
			<title>Dynamic connector.1044</title>
			<desc>Line</desc>
			<path d="M0 595.28 L0 568.35 L-141.73 568.35 L-141.73 554.13" class="st4"/>
			<rect x="-74.7227" y="563.547" width="13.3824" height="9.59985" class="st6"/>
			<text x="-74.72" y="570.75" class="st7">Line</text>		</g>
		<g id="shape30-156" transform="translate(473.386,-191.339)">
			<title>Dynamic connector.1045</title>
			<desc>90 deg Timeout</desc>
			<path d="M7.09 595.28 L7.09 636.42" class="st4"/>
			<rect x="-18.3545" y="614.57" width="50.8824" height="9.59985" class="st6"/>
			<text x="-18.35" y="621.77" class="st7">90 deg Timeout</text>		</g>
		<g id="shape31-163" transform="translate(445.039,-191.339)">
			<title>Process.1046</title>
			<desc>Continue Movement</desc>
			<rect x="0" y="552.756" width="70.8661" height="42.5197" class="st1"/>
			<text x="20.64" y="571.62" class="st2">Continue <tspan x="17.48" dy="1.2em" class="st3">Movement</tspan></text>		</g>
		<g id="shape32-167" transform="translate(586.772,-205.512)">
			<title>Dynamic connector.1047</title>
			<desc>45 deg</desc>
			<path d="M0 588.19 L-63.83 588.19" class="st4"/>
			<rect x="-46.3666" y="583.389" width="21.8672" height="9.59985" class="st6"/>
			<text x="-46.37" y="590.59" class="st7">45 deg</text>		</g>
		<g id="shape33-174" transform="translate(515.906,-121.89)">
			<title>Dynamic connector.1048</title>
			<desc>10cm</desc>
			<path d="M0 595.28 L106.3 595.28 L106.3 532.87" class="st4"/>
			<rect x="78.9326" y="590.476" width="17.8827" height="9.59985" class="st6"/>
			<text x="78.93" y="597.68" class="st7">10cm</text>		</g>
		<g id="shape34-181" transform="translate(303.307,-303.307)">
			<title>Dynamic connector.1049</title>
			<desc>No Eggs Remaining</desc>
			<path d="M0 595.28 L-34.02 595.28 L-34.02 714.38" class="st4"/>
			<rect x="-51.2106" y="662.211" width="34.39" height="19.1997" class="st6"/>
			<text x="-46.89" y="669.41" class="st7">No Eggs <tspan x="-51.21" dy="1.2em" class="st3">Remaining</tspan></text>		</g>
		<g id="shape35-189" transform="translate(233.858,-134.646)">
			<title>Process.1050</title>
			<desc>Reverse</desc>
			<rect x="0" y="552.756" width="70.8661" height="42.5197" class="st1"/>
			<text x="22.52" y="576.42" class="st2">Reverse</text>		</g>
		<g id="shape36-192" transform="translate(262.205,-134.646)">
			<title>Dynamic connector.1051</title>
			<desc>30cm</desc>
			<path d="M7.09 595.28 L7.09 630.76" class="st4"/>
			<rect x="-1.85482" y="611.736" width="17.8827" height="9.59985" class="st6"/>
			<text x="-1.85" y="618.94" class="st7">30cm</text>		</g>
	</g>
</svg>
