<?xml version="1.0" encoding="UTF-8" standalone="no"?>
<!DOCTYPE svg PUBLIC "-//W3C//DTD SVG 1.1//EN" "http://www.w3.org/Graphics/SVG/1.1/DTD/svg11.dtd">
<!-- Generated by Microsoft Visio, SVG Export q4_collect_d1.svg Page-1 -->
<svg xmlns="http://www.w3.org/2000/svg" xmlns:xlink="http://www.w3.org/1999/xlink" xmlns:ev="http://www.w3.org/2001/xml-events"
		width="11.6929in" height="8.26772in" viewBox="0 0 841.89 595.276" xml:space="preserve" color-interpolation-filters="sRGB"
		class="st10">
	<title>q3_return_from_d2d3</title>

	<style type="text/css">
	<![CDATA[
		.st1 {fill:#ffffff;stroke:#06306f;stroke-linecap:round;stroke-linejoin:round;stroke-width:1}
		.st2 {fill:#06306f;font-family:Calibri;font-size:0.666664em}
		.st3 {fill:#ffffff}
		.st4 {stroke:#06306f;stroke-linecap:round;stroke-linejoin:round;stroke-width:1}
		.st5 {font-size:1em}
		.st6 {marker-end:url(#mrkr4-26);stroke:#06306f;stroke-linecap:round;stroke-linejoin:round;stroke-width:1}
		.st7 {fill:#06306f;fill-opacity:1;stroke:#06306f;stroke-opacity:1;stroke-width:0.28409090909091}
		.st8 {fill:#ffffff;stroke:none;stroke-linecap:butt;stroke-width:7.2}
		.st9 {fill:#062f6e;font-family:Calibri;font-size:0.666664em}
		.st10 {fill:none;fill-rule:evenodd;font-size:12px;overflow:visible;stroke-linecap:square;stroke-miterlimit:3}
	]]>
	</style>

	<defs id="Markers">
		<g id="lend4">
			<path d="M 2 1 L 0 0 L 2 -1 L 2 1 " style="stroke:none"/>
		</g>
		<marker id="mrkr4-26" class="st7" refX="-7.04" orient="auto" markerUnits="strokeWidth" overflow="visible">
			<use xlink:href="#lend4" transform="scale(-3.52,-3.52) "/>
		</marker>
	</defs>
	<g>
		<title>Page-1</title>
		<g id="shape1-1" transform="translate(162.433,-480.472)">
			<title>Start/End.1000</title>
			<desc>Start</desc>
			<path d="M8.5 595.28 L34.02 595.28 A8.50394 8.50394 -180 0 0 34.02 578.27 L8.5 578.27 A8.50394 8.50394 -180 1 0 8.5 595.28
						 Z" class="st1"/>
			<text x="13.43" y="589.17" class="st2">Start</text>		</g>
		<g id="shape2-4" transform="translate(546.229,-480.472)">
			<title>Start/End.1014</title>
			<desc>End</desc>
			<path d="M8.5 595.28 L34.02 595.28 A8.50394 8.50394 -180 0 0 34.02 578.27 L8.5 578.27 A8.50394 8.50394 -180 1 0 8.5 595.28
						 Z" class="st1"/>
			<text x="15.1" y="589.17" class="st2">End</text>		</g>
		<g id="shape3-7" transform="translate(247.472,-467.717)">
			<title>Subprocess</title>
			<desc>goToConveyor (west)</desc>
			<path d="M0 595.28 L87.87 595.28 L87.87 552.76 L0 552.76 L0 595.28 Z" class="st3"/>
			<path d="M0 595.28 L87.87 595.28 L87.87 552.76 L0 552.76 L0 595.28" class="st4"/>
			<path d="M8.5 595.28 L8.5 552.76" class="st4"/>
			<path d="M79.37 595.28 L79.37 552.76" class="st4"/>
			<text x="20.43" y="571.62" class="st2">goToConveyor <tspan x="33.76" dy="1.2em" class="st5">(</tspan>west)</text>		</g>
		<g id="shape4-14" transform="translate(377.866,-467.717)">
			<title>Subprocess.1016</title>
			<desc>conveyorCollect (shouldCollectAny)</desc>
			<path d="M0 595.28 L96.38 595.28 L96.38 552.76 L0 552.76 L0 595.28 Z" class="st3"/>
			<path d="M0 595.28 L96.38 595.28 L96.38 552.76 L0 552.76 L0 595.28" class="st4"/>
			<path d="M8.5 595.28 L8.5 552.76" class="st4"/>
			<path d="M87.87 595.28 L87.87 552.76" class="st4"/>
			<text x="22.08" y="571.62" class="st2">conveyorCollect <tspan x="17.54" dy="1.2em" class="st5">(</tspan>shouldCollectAny)</text>		</g>
		<g id="shape5-21" transform="translate(335.346,-481.89)">
			<title>Dynamic connector.1018</title>
			<path d="M0 588.19 L35.48 588.19" class="st6"/>
		</g>
		<g id="shape6-27" transform="translate(204.952,-481.89)">
			<title>Dynamic connector</title>
			<path d="M0 588.19 L35.48 588.19" class="st6"/>
		</g>
		<g id="shape7-32" transform="translate(390.622,-382.677)">
			<title>Process</title>
			<desc>Reverse</desc>
			<rect x="0" y="552.756" width="70.8661" height="42.5197" class="st1"/>
			<text x="22.52" y="576.42" class="st2">Reverse</text>		</g>
		<g id="shape8-35" transform="translate(532.056,-382.677)">
			<title>Process.1097</title>
			<desc>Move Forward: 1 Steer: -0.2</desc>
			<rect x="0" y="552.756" width="70.8661" height="42.5197" class="st1"/>
			<text x="26.11" y="566.82" class="st2">Move <tspan x="17.82" dy="1.2em" class="st5">Forward</tspan>: 1 <tspan x="18.62"
						dy="1.2em" class="st5">Steer</tspan>: -0.2</text>		</g>
		<g id="shape9-40" transform="translate(418.968,-467.717)">
			<title>Dynamic connector.1099</title>
			<desc>Not at Junction</desc>
			<path d="M7.09 595.28 L7.09 630.76" class="st6"/>
			<rect x="-6.55175" y="606.936" width="27.2769" height="19.1997" class="st8"/>
			<text x="-3.1" y="614.14" class="st9">Not at <tspan x="-6.55" dy="1.2em" class="st5">Junction</tspan></text>		</g>
		<g id="shape10-48" transform="translate(461.488,-396.85)">
			<title>Dynamic connector.1100</title>
			<desc>20cm</desc>
			<path d="M0 588.19 L63.53 588.19" class="st6"/>
			<rect x="26.3424" y="583.389" width="17.8827" height="9.59985" class="st8"/>
			<text x="26.34" y="590.59" class="st9">20cm</text>		</g>
		<g id="shape11-55" transform="translate(474.244,-496.063)">
			<title>Dynamic connector.1101</title>
			<desc>Else</desc>
			<path d="M0 602.36 L64.95 602.36" class="st6"/>
			<rect x="29.567" y="597.562" width="12.8513" height="9.59985" class="st8"/>
			<text x="29.57" y="604.76" class="st9">Else</text>		</g>
		<g id="shape12-62" transform="translate(560.402,-425.197)">
			<title>Dynamic connector.1102</title>
			<desc>Line</desc>
			<path d="M7.09 595.28 L7.09 547.04" class="st6"/>
			<rect x="0.395452" y="562.838" width="13.3824" height="9.59985" class="st8"/>
			<text x="0.4" y="570.04" class="st9">Line</text>		</g>
	</g>
</svg>
