<?xml version="1.0" encoding="UTF-8" standalone="no"?>
<!DOCTYPE svg PUBLIC "-//W3C//DTD SVG 1.1//EN" "http://www.w3.org/Graphics/SVG/1.1/DTD/svg11.dtd">
<!-- Generated by Microsoft Visio, SVG Export dropEggs.svg Page-1 -->
<svg xmlns="http://www.w3.org/2000/svg" xmlns:xlink="http://www.w3.org/1999/xlink" xmlns:ev="http://www.w3.org/2001/xml-events"
		width="11.6929in" height="8.26772in" viewBox="0 0 841.89 595.276" xml:space="preserve" color-interpolation-filters="sRGB"
		class="st8">
	<title>dropEggs</title>

	<style type="text/css">
	<![CDATA[
		.st1 {fill:#ffffff;stroke:#06306f;stroke-linecap:round;stroke-linejoin:round;stroke-width:1}
		.st2 {fill:#06306f;font-family:Calibri;font-size:0.666664em}
		.st3 {marker-end:url(#mrkr4-18);stroke:#06306f;stroke-linecap:round;stroke-linejoin:round;stroke-width:1}
		.st4 {fill:#06306f;fill-opacity:1;stroke:#06306f;stroke-opacity:1;stroke-width:0.28409090909091}
		.st5 {fill:#ffffff;stroke:none;stroke-linecap:butt;stroke-width:7.2}
		.st6 {fill:#062f6e;font-family:Calibri;font-size:0.666664em}
		.st7 {font-size:1em}
		.st8 {fill:none;fill-rule:evenodd;font-size:12px;overflow:visible;stroke-linecap:square;stroke-miterlimit:3}
	]]>
	</style>

	<defs id="Markers">
		<g id="lend4">
			<path d="M 2 1 L 0 0 L 2 -1 L 2 1 " style="stroke:none"/>
		</g>
		<marker id="mrkr4-18" class="st4" refX="-7.04" orient="auto" markerUnits="strokeWidth" overflow="visible">
			<use xlink:href="#lend4" transform="scale(-3.52,-3.52) "/>
		</marker>
	</defs>
	<g>
		<title>Page-1</title>
		<g id="shape1-1" transform="translate(184.252,-395.433)">
			<title>Start/End.1000</title>
			<desc>Start</desc>
			<path d="M8.5 595.28 L34.02 595.28 A8.50394 8.50394 -180 0 0 34.02 578.27 L8.5 578.27 A8.50394 8.50394 -180 1 0 8.5 595.28
						 Z" class="st1"/>
			<text x="13.43" y="589.17" class="st2">Start</text>		</g>
		<g id="shape2-4" transform="translate(453.543,-395.433)">
			<title>Start/End.1014</title>
			<desc>End</desc>
			<path d="M8.5 595.28 L34.02 595.28 A8.50394 8.50394 -180 0 0 34.02 578.27 L8.5 578.27 A8.50394 8.50394 -180 1 0 8.5 595.28
						 Z" class="st1"/>
			<text x="15.1" y="589.17" class="st2">End</text>		</g>
		<g id="shape3-7" transform="translate(297.638,-467.717)">
			<title>Process</title>
			<desc>Delay</desc>
			<rect x="0" y="552.756" width="70.8661" height="42.5197" class="st1"/>
			<text x="26.34" y="576.42" class="st2">Delay</text>		</g>
		<g id="shape4-10" transform="translate(297.638,-382.677)">
			<title>Process.1053</title>
			<desc>unloadEgg</desc>
			<rect x="0" y="552.756" width="70.8661" height="42.5197" class="st1"/>
			<text x="18.47" y="576.42" class="st2">unloadEgg</text>		</g>
		<g id="shape5-13" transform="translate(226.772,-396.85)">
			<title>Dynamic connector</title>
			<desc>eggDetected</desc>
			<path d="M0 588.19 L63.83 588.19" class="st3"/>
			<rect x="14.7735" y="583.389" width="41.3193" height="9.59985" class="st5"/>
			<text x="14.77" y="590.59" class="st6">eggDetected</text>		</g>
		<g id="shape6-21" transform="translate(368.504,-411.024)">
			<title>Dynamic connector.1055</title>
			<desc>N unloaded</desc>
			<path d="M0 602.36 L78 602.36" class="st3"/>
			<rect x="23.6938" y="597.562" width="37.6521" height="9.59985" class="st5"/>
			<text x="23.69" y="604.76" class="st6">N unloaded</text>		</g>
		<g id="shape7-28" transform="translate(297.638,-219.685)">
			<title>Process.1057</title>
			<desc>Reverse</desc>
			<rect x="0" y="552.756" width="70.8661" height="42.5197" class="st1"/>
			<text x="22.52" y="576.42" class="st2">Reverse</text>		</g>
		<g id="shape8-31" transform="translate(325.984,-425.197)">
			<title>Dynamic connector.1058</title>
			<desc>Else</desc>
			<path d="M7.09 595.28 L7.09 559.8" class="st3"/>
			<rect x="0.661046" y="569.216" width="12.8513" height="9.59985" class="st5"/>
			<text x="0.66" y="576.42" class="st6">Else</text>		</g>
		<g id="shape9-38" transform="translate(297.638,-488.976)">
			<title>Dynamic connector.1059</title>
			<path d="M0 595.28 L-92.13 595.28 L-92.13 664.77" class="st3"/>
		</g>
		<g id="shape10-43" transform="translate(581.102,-219.685)">
			<title>Process.1060</title>
			<desc>Turn CW</desc>
			<rect x="0" y="552.756" width="70.8661" height="42.5197" class="st1"/>
			<text x="21.29" y="576.42" class="st2">Turn CW</text>		</g>
		<g id="shape11-46" transform="translate(439.37,-219.685)">
			<title>Process.1061</title>
			<desc>Turn CCW</desc>
			<rect x="0" y="552.756" width="70.8661" height="42.5197" class="st1"/>
			<text x="19.16" y="576.42" class="st2">Turn CCW</text>		</g>
		<g id="shape12-49" transform="translate(205.512,-395.433)">
			<title>Dynamic connector.1062</title>
			<desc>Else</desc>
			<path d="M0 595.28 L0 749.76 L85.09 749.76" class="st3"/>
			<rect x="-6.42557" y="713.783" width="12.8513" height="9.59985" class="st5"/>
			<text x="-6.43" y="720.98" class="st6">Else</text>		</g>
		<g id="shape13-56" transform="translate(368.504,-248.031)">
			<title>Dynamic connector.1063</title>
			<desc>6cm</desc>
			<path d="M0 602.36 L63.83 602.36" class="st3"/>
			<rect x="28.5192" y="597.562" width="13.8279" height="9.59985" class="st5"/>
			<text x="28.52" y="604.76" class="st6">6cm</text>		</g>
		<g id="shape14-63" transform="translate(510.236,-233.858)">
			<title>Dynamic connector.1064</title>
			<desc>10cm</desc>
			<path d="M0 588.19 L63.83 588.19" class="st3"/>
			<rect x="26.4916" y="583.389" width="17.8827" height="9.59985" class="st5"/>
			<text x="26.49" y="590.59" class="st6">10cm</text>		</g>
		<g id="shape15-70" transform="translate(439.37,-310.394)">
			<title>Process.1066</title>
			<rect x="0" y="552.756" width="70.8661" height="42.5197" class="st1"/>
		</g>
		<g id="shape16-72" transform="translate(651.969,-240.945)">
			<title>Dynamic connector.1067</title>
			<desc>Line Or 15 degrees</desc>
			<path d="M0 595.28 L21.26 595.28 L21.26 504.57 L-134.69 504.57" class="st3"/>
			<rect x="-27.0721" y="494.967" width="45.6405" height="19.1997" class="st5"/>
			<text x="-10.94" y="502.17" class="st6">Line <tspan x="-27.07" dy="1.2em" class="st7">Or </tspan>15 degrees</text>		</g>
		<g id="shape17-80" transform="translate(467.717,-310.394)">
			<title>Dynamic connector.1068</title>
			<desc>Not eggDetected</desc>
			<path d="M7.09 595.28 L7.09 636.42" class="st3"/>
			<rect x="-20.5085" y="614.57" width="55.1904" height="9.59985" class="st5"/>
			<text x="-20.51" y="621.77" class="st6">Not eggDetected</text>		</g>
		<g id="shape18-87" transform="translate(467.717,-352.913)">
			<title>Dynamic connector.1069</title>
			<desc>N unloaded</desc>
			<path d="M7.09 595.28 L7.09 559.8" class="st3"/>
			<rect x="-11.7393" y="569.216" width="37.6521" height="9.59985" class="st5"/>
			<text x="-11.74" y="576.42" class="st6">N unloaded</text>		</g>
		<g id="shape19-94" transform="translate(439.37,-331.654)">
			<title>Dynamic connector.1070</title>
			<desc>5 Wiggle Attempts</desc>
			<path d="M0 595.28 L-230.86 595.28 A3 3 -180 0 0 -236.86 595.28 L-276.38 595.28 L-276.38 522.99 L-262.16 522.99"
					class="st3"/>
			<rect x="-200.146" y="585.676" width="30.3703" height="19.1997" class="st5"/>
			<text x="-199.04" y="592.88" class="st6">5 Wiggle <tspan x="-200.15" dy="1.2em" class="st7">Attempts</tspan></text>		</g>
		<g id="shape20-102" transform="translate(439.37,-331.654)">
			<title>Dynamic connector.1071</title>
			<desc>eggDetected</desc>
			<path d="M0 595.28 L-106.3 595.28 L-106.3 551.29" class="st3"/>
			<rect x="-126.959" y="574.885" width="41.3193" height="9.59985" class="st5"/>
			<text x="-126.96" y="582.09" class="st6">eggDetected</text>		</g>
	</g>
</svg>
