<?xml version="1.0" encoding="UTF-8" standalone="no"?>
<!DOCTYPE svg PUBLIC "-//W3C//DTD SVG 1.1//EN" "http://www.w3.org/Graphics/SVG/1.1/DTD/svg11.dtd">
<!-- Generated by Microsoft Visio, SVG Export q3_return_from_d2d3.svg Page-1 -->
<svg xmlns="http://www.w3.org/2000/svg" xmlns:xlink="http://www.w3.org/1999/xlink" xmlns:ev="http://www.w3.org/2001/xml-events"
		width="11.6929in" height="8.26772in" viewBox="0 0 841.89 595.276" xml:space="preserve" color-interpolation-filters="sRGB"
		class="st8">
	<title>q3_return_from_d2d3</title>

	<style type="text/css">
	<![CDATA[
		.st1 {fill:#ffffff;stroke:#06306f;stroke-linecap:round;stroke-linejoin:round;stroke-width:1}
		.st2 {fill:#06306f;font-family:Calibri;font-size:0.666664em}
		.st3 {font-size:1em}
		.st4 {marker-end:url(#mrkr4-36);stroke:#06306f;stroke-linecap:round;stroke-linejoin:round;stroke-width:1}
		.st5 {fill:#06306f;fill-opacity:1;stroke:#06306f;stroke-opacity:1;stroke-width:0.28409090909091}
		.st6 {fill:#ffffff;stroke:none;stroke-linecap:butt;stroke-width:7.2}
		.st7 {fill:#062f6e;font-family:Calibri;font-size:0.666664em}
		.st8 {fill:none;fill-rule:evenodd;font-size:12px;overflow:visible;stroke-linecap:square;stroke-miterlimit:3}
	]]>
	</style>

	<defs id="Markers">
		<g id="lend4">
			<path d="M 2 1 L 0 0 L 2 -1 L 2 1 " style="stroke:none"/>
		</g>
		<marker id="mrkr4-36" class="st5" refX="-7.04" orient="auto" markerUnits="strokeWidth" overflow="visible">
			<use xlink:href="#lend4" transform="scale(-3.52,-3.52) "/>
		</marker>
	</defs>
	<g>
		<title>Page-1</title>
		<g id="shape1-1" transform="translate(45.3543,-479.055)">
			<title>Start/End.1000</title>
			<desc>Start</desc>
			<path d="M8.5 595.28 L34.02 595.28 A8.50394 8.50394 -180 0 0 34.02 578.27 L8.5 578.27 A8.50394 8.50394 -180 1 0 8.5 595.28
						 Z" class="st1"/>
			<text x="13.43" y="589.17" class="st2">Start</text>		</g>
		<g id="shape2-4" transform="translate(558.425,-394.016)">
			<title>Start/End.1014</title>
			<desc>End</desc>
			<path d="M8.5 595.28 L34.02 595.28 A8.50394 8.50394 -180 0 0 34.02 578.27 L8.5 578.27 A8.50394 8.50394 -180 1 0 8.5 595.28
						 Z" class="st1"/>
			<text x="15.1" y="589.17" class="st2">End</text>		</g>
		<g id="shape3-7" transform="translate(148.819,-466.299)">
			<title>Process</title>
			<desc>At Delivery Nexus Turn CW</desc>
			<rect x="0" y="552.756" width="70.8661" height="42.5197" class="st1"/>
			<text x="6.71" y="571.62" class="st2">At Delivery Nexus <tspan x="21.29" dy="1.2em" class="st3">Turn CW</tspan></text>		</g>
		<g id="shape4-11" transform="translate(280.63,-466.299)">
			<title>Process.1076</title>
			<desc>Line Follow</desc>
			<rect x="0" y="552.756" width="70.8661" height="42.5197" class="st1"/>
			<text x="17.09" y="576.42" class="st2">Line Follow</text>		</g>
		<g id="shape5-14" transform="translate(412.441,-466.299)">
			<title>Process.1077</title>
			<desc>At Ramp Top Turn CW</desc>
			<rect x="0" y="552.756" width="70.8661" height="42.5197" class="st1"/>
			<text x="14.43" y="571.62" class="st2">At Ramp Top <tspan x="21.29" dy="1.2em" class="st3">Turn CW</tspan></text>		</g>
		<g id="shape6-18" transform="translate(544.252,-466.299)">
			<title>Process.1078</title>
			<desc>Line Follow</desc>
			<rect x="0" y="552.756" width="70.8661" height="42.5197" class="st1"/>
			<text x="17.09" y="576.42" class="st2">Line Follow</text>		</g>
		<g id="shape7-21" transform="translate(676.063,-466.299)">
			<title>Process.1079</title>
			<desc>At Ramp Bottom Turn CW</desc>
			<rect x="0" y="552.756" width="70.8661" height="42.5197" class="st1"/>
			<text x="8.32" y="571.62" class="st2">At Ramp Bottom <tspan x="21.29" dy="1.2em" class="st3">Turn CW</tspan></text>		</g>
		<g id="shape8-25" transform="translate(148.819,-381.26)">
			<title>Process.1080</title>
			<desc>Line Follow</desc>
			<rect x="0" y="552.756" width="70.8661" height="42.5197" class="st1"/>
			<text x="17.09" y="576.42" class="st2">Line Follow</text>		</g>
		<g id="shape9-28" transform="translate(412.441,-381.26)">
			<title>Process.1082</title>
			<desc>Move Straight</desc>
			<rect x="0" y="552.756" width="70.8661" height="42.5197" class="st1"/>
			<text x="12.47" y="576.42" class="st2">Move Straight</text>		</g>
		<g id="shape10-31" transform="translate(87.874,-480.472)">
			<title>Dynamic connector</title>
			<path d="M0 588.19 L53.9 588.19" class="st4"/>
		</g>
		<g id="shape11-37" transform="translate(219.685,-480.472)">
			<title>Dynamic connector.1084</title>
			<desc>180 deg</desc>
			<path d="M0 588.19 L53.9 588.19" class="st4"/>
			<rect x="17.5114" y="583.389" width="25.922" height="9.59985" class="st6"/>
			<text x="17.51" y="590.59" class="st7">180 deg</text>		</g>
		<g id="shape12-44" transform="translate(351.496,-480.472)">
			<title>Dynamic connector.1085</title>
			<desc>2 Junctions</desc>
			<path d="M0 588.19 L53.9 588.19" class="st4"/>
			<rect x="12.338" y="583.389" width="36.2692" height="9.59985" class="st6"/>
			<text x="12.34" y="590.59" class="st7">2 Junctions</text>		</g>
		<g id="shape13-51" transform="translate(483.307,-480.472)">
			<title>Dynamic connector.1086</title>
			<desc>90 deg</desc>
			<path d="M0 588.19 L53.9 588.19" class="st4"/>
			<rect x="19.5389" y="583.389" width="21.8672" height="9.59985" class="st6"/>
			<text x="19.54" y="590.59" class="st7">90 deg</text>		</g>
		<g id="shape14-58" transform="translate(615.118,-480.472)">
			<title>Dynamic connector.1087</title>
			<desc>Junction</desc>
			<path d="M0 588.19 L53.9 588.19" class="st4"/>
			<rect x="16.8341" y="583.389" width="27.2769" height="9.59985" class="st6"/>
			<text x="16.83" y="590.59" class="st7">Junction</text>		</g>
		<g id="shape15-65" transform="translate(711.496,-466.299)">
			<title>Dynamic connector.1088</title>
			<desc>90 deg</desc>
			<path d="M0 595.28 L0 616.54 L-527.24 616.54 L-527.24 630.76" class="st4"/>
			<rect x="-274.556" y="611.736" width="21.8672" height="9.59985" class="st6"/>
			<text x="-274.56" y="618.94" class="st7">90 deg</text>		</g>
		<g id="shape16-72" transform="translate(219.685,-395.433)">
			<title>Dynamic connector.1089</title>
			<desc>3 Full cross-junctions</desc>
			<path d="M0 588.19 L185.72 588.19" class="st4"/>
			<rect x="62.3335" y="583.389" width="68.0891" height="9.59985" class="st6"/>
			<text x="62.33" y="590.59" class="st7">3 Full cross-junctions</text>		</g>
		<g id="shape17-79" transform="translate(483.307,-409.606)">
			<title>Dynamic connector.1091</title>
			<desc>5cm</desc>
			<path d="M0 602.36 L68.08 602.36" class="st4"/>
			<rect x="30.6451" y="597.562" width="13.8279" height="9.59985" class="st6"/>
			<text x="30.65" y="604.76" class="st7">5cm</text>		</g>
	</g>
</svg>
