<?xml version="1.0" encoding="UTF-8" standalone="no"?>
<!DOCTYPE svg PUBLIC "-//W3C//DTD SVG 1.1//EN" "http://www.w3.org/Graphics/SVG/1.1/DTD/svg11.dtd">
<!-- Generated by Microsoft Visio, SVG Export q5_deliver_d1.svg Page-1 -->
<svg xmlns="http://www.w3.org/2000/svg" xmlns:xlink="http://www.w3.org/1999/xlink" xmlns:ev="http://www.w3.org/2001/xml-events"
		width="11.6929in" height="8.26772in" viewBox="0 0 841.89 595.276" xml:space="preserve" color-interpolation-filters="sRGB"
		class="st10">
	<title>q3_return_from_d2d3</title>

	<style type="text/css">
	<![CDATA[
		.st1 {fill:#ffffff;stroke:#06306f;stroke-linecap:round;stroke-linejoin:round;stroke-width:1}
		.st2 {fill:#06306f;font-family:Calibri;font-size:0.666664em}
		.st3 {font-size:1em}
		.st4 {fill:#ffffff}
		.st5 {stroke:#06306f;stroke-linecap:round;stroke-linejoin:round;stroke-width:1}
		.st6 {marker-end:url(#mrkr4-45);stroke:#06306f;stroke-linecap:round;stroke-linejoin:round;stroke-width:1}
		.st7 {fill:#06306f;fill-opacity:1;stroke:#06306f;stroke-opacity:1;stroke-width:0.28409090909091}
		.st8 {fill:#ffffff;stroke:none;stroke-linecap:butt;stroke-width:7.2}
		.st9 {fill:#062f6e;font-family:Calibri;font-size:0.666664em}
		.st10 {fill:none;fill-rule:evenodd;font-size:12px;overflow:visible;stroke-linecap:square;stroke-miterlimit:3}
	]]>
	</style>

	<defs id="Markers">
		<g id="lend4">
			<path d="M 2 1 L 0 0 L 2 -1 L 2 1 " style="stroke:none"/>
		</g>
		<marker id="mrkr4-45" class="st7" refX="-7.04" orient="auto" markerUnits="strokeWidth" overflow="visible">
			<use xlink:href="#lend4" transform="scale(-3.52,-3.52) "/>
		</marker>
	</defs>
	<g>
		<title>Page-1</title>
		<g id="shape1-1" transform="translate(76.8338,-480.472)">
			<title>Start/End.1000</title>
			<desc>Start</desc>
			<path d="M8.5 595.28 L34.02 595.28 A8.50394 8.50394 -180 0 0 34.02 578.27 L8.5 578.27 A8.50394 8.50394 -180 1 0 8.5 595.28
						 Z" class="st1"/>
			<text x="13.43" y="589.17" class="st2">Start</text>		</g>
		<g id="shape2-4" transform="translate(333.071,-310.394)">
			<title>Start/End.1014</title>
			<desc>End</desc>
			<path d="M8.5 595.28 L34.02 595.28 A8.50394 8.50394 -180 0 0 34.02 578.27 L8.5 578.27 A8.50394 8.50394 -180 1 0 8.5 595.28
						 Z" class="st1"/>
			<text x="15.1" y="589.17" class="st2">End</text>		</g>
		<g id="shape3-7" transform="translate(183.692,-467.717)">
			<title>Process</title>
			<desc>Turn CCW Forward: 0.5 Steer: 0.5</desc>
			<rect x="0" y="552.756" width="70.8661" height="42.5197" class="st1"/>
			<text x="19.16" y="566.82" class="st2">Turn CCW <tspan x="14.78" dy="1.2em" class="st3">Forward</tspan>: 0.5 <tspan
						x="19.84" dy="1.2em" class="st3">Steer</tspan>: 0.5</text>		</g>
		<g id="shape4-12" transform="translate(318.898,-467.717)">
			<title>Process.1104</title>
			<desc>Drive Forward</desc>
			<rect x="0" y="552.756" width="70.8661" height="42.5197" class="st1"/>
			<text x="12.35" y="576.42" class="st2">Drive Forward</text>		</g>
		<g id="shape5-15" transform="translate(454.103,-467.717)">
			<title>Process.1105</title>
			<desc>Turn CCW</desc>
			<rect x="0" y="552.756" width="70.8661" height="42.5197" class="st1"/>
			<text x="19.16" y="576.42" class="st2">Turn CCW</text>		</g>
		<g id="shape6-18" transform="translate(589.308,-467.717)">
			<title>Process.1106</title>
			<desc>Drive Forward</desc>
			<rect x="0" y="552.756" width="70.8661" height="42.5197" class="st1"/>
			<text x="12.35" y="576.42" class="st2">Drive Forward</text>		</g>
		<g id="shape7-21" transform="translate(183.692,-382.677)">
			<title>Process.1107</title>
			<desc>Drive Forward</desc>
			<rect x="0" y="552.756" width="70.8661" height="42.5197" class="st1"/>
			<text x="12.35" y="576.42" class="st2">Drive Forward</text>		</g>
		<g id="shape8-24" transform="translate(318.898,-382.677)">
			<title>Process.1108</title>
			<desc>Turn CCW</desc>
			<rect x="0" y="552.756" width="70.8661" height="42.5197" class="st1"/>
			<text x="19.16" y="576.42" class="st2">Turn CCW</text>		</g>
		<g id="shape9-27" transform="translate(454.103,-382.677)">
			<title>Process.1109</title>
			<desc>Line Follow</desc>
			<rect x="0" y="552.756" width="70.8661" height="42.5197" class="st1"/>
			<text x="17.09" y="576.42" class="st2">Line Follow</text>		</g>
		<g id="shape10-30" transform="translate(589.308,-382.677)">
			<title>Process.1110</title>
			<desc>Turn CW</desc>
			<rect x="0" y="552.756" width="70.8661" height="42.5197" class="st1"/>
			<text x="21.29" y="576.42" class="st2">Turn CW</text>		</g>
		<g id="shape11-33" transform="translate(183.692,-297.638)">
			<title>Subprocess</title>
			<desc>dropEggs (All)</desc>
			<path d="M0 595.28 L70.87 595.28 L70.87 552.76 L0 552.76 L0 595.28 Z" class="st4"/>
			<path d="M0 595.28 L70.87 595.28 L70.87 552.76 L0 552.76 L0 595.28" class="st5"/>
			<path d="M8.5 595.28 L8.5 552.76" class="st5"/>
			<path d="M62.36 595.28 L62.36 552.76" class="st5"/>
			<text x="20.44" y="571.62" class="st2">dropEggs <tspan x="28.86" dy="1.2em" class="st3">(</tspan>All)</text>		</g>
		<g id="shape12-40" transform="translate(119.354,-481.89)">
			<title>Dynamic connector</title>
			<path d="M0 588.19 L57.3 588.19" class="st6"/>
		</g>
		<g id="shape13-46" transform="translate(254.559,-481.89)">
			<title>Dynamic connector.1113</title>
			<desc>90 deg</desc>
			<path d="M0 588.19 L57.3 588.19" class="st6"/>
			<rect x="21.236" y="583.389" width="21.8672" height="9.59985" class="st8"/>
			<text x="21.24" y="590.59" class="st9">90 deg</text>		</g>
		<g id="shape14-53" transform="translate(389.764,-481.89)">
			<title>Dynamic connector.1114</title>
			<desc>30cm</desc>
			<path d="M0 588.19 L57.3 588.19" class="st6"/>
			<rect x="23.2281" y="583.389" width="17.8827" height="9.59985" class="st8"/>
			<text x="23.23" y="590.59" class="st9">30cm</text>		</g>
		<g id="shape15-60" transform="translate(524.969,-481.89)">
			<title>Dynamic connector.1115</title>
			<desc>40 deg</desc>
			<path d="M0 588.19 L57.3 588.19" class="st6"/>
			<rect x="21.236" y="583.389" width="21.8672" height="9.59985" class="st8"/>
			<text x="21.24" y="590.59" class="st9">40 deg</text>		</g>
		<g id="shape16-67" transform="translate(624.741,-467.717)">
			<title>Dynamic connector.1116</title>
			<desc>Line At least 10cm</desc>
			<path d="M0 595.28 L0 616.54 L-405.62 616.54 L-405.62 630.76" class="st6"/>
			<rect x="-224.94" y="606.936" width="44.265" height="19.1997" class="st8"/>
			<text x="-209.5" y="614.14" class="st9">Line <tspan x="-224.94" dy="1.2em" class="st3">At least </tspan>10cm</text>		</g>
		<g id="shape17-75" transform="translate(254.559,-411.024)">
			<title>Dynamic connector.1117</title>
			<desc>14cm</desc>
			<path d="M0 602.36 L57.3 602.36" class="st6"/>
			<rect x="23.2281" y="597.562" width="17.8827" height="9.59985" class="st8"/>
			<text x="23.23" y="604.76" class="st9">14cm</text>		</g>
		<g id="shape18-82" transform="translate(389.764,-396.85)">
			<title>Dynamic connector.1118</title>
			<desc>Line</desc>
			<path d="M0 588.19 L57.3 588.19" class="st6"/>
			<rect x="25.4783" y="583.389" width="13.3824" height="9.59985" class="st8"/>
			<text x="25.48" y="590.59" class="st9">Line</text>		</g>
		<g id="shape19-89" transform="translate(524.969,-396.85)">
			<title>Dynamic connector.1119</title>
			<desc>Junction</desc>
			<path d="M0 588.19 L57.3 588.19" class="st6"/>
			<rect x="18.5311" y="583.389" width="27.2769" height="9.59985" class="st8"/>
			<text x="18.53" y="590.59" class="st9">Junction</text>		</g>
		<g id="shape20-96" transform="translate(624.741,-382.677)">
			<title>Dynamic connector.1120</title>
			<desc>90 deg</desc>
			<path d="M0 595.28 L0 616.54 L-405.62 616.54 L-405.62 630.76" class="st6"/>
			<rect x="-213.741" y="611.736" width="21.8672" height="9.59985" class="st8"/>
			<text x="-213.74" y="618.94" class="st9">90 deg</text>		</g>
		<g id="shape21-103" transform="translate(254.559,-325.984)">
			<title>Dynamic connector.1121</title>
			<path d="M0 602.36 L71.47 602.36" class="st6"/>
		</g>
	</g>
</svg>
